<?xml version="1.0" encoding="utf-8"?>
<!-- Generator: Adobe Illustrator 18.0.0, SVG Export Plug-In . SVG Version: 6.00 Build 0)  -->
<!DOCTYPE svg PUBLIC "-//W3C//DTD SVG 1.1//EN" "http://www.w3.org/Graphics/SVG/1.1/DTD/svg11.dtd">
<svg version="1.1" id="Layer_1" xmlns="http://www.w3.org/2000/svg" xmlns:xlink="http://www.w3.org/1999/xlink" x="0px" y="0px"
	 viewBox="0 0 43 11.5" enable-background="new 0 0 43 11.5" xml:space="preserve">
<g>
	<g>
		<path fill="#0A83A0" d="M31.1,9.5c-0.6,0-1.2-0.4-1.4-0.9c-0.3-0.7,0.1-1.6,0.9-1.8C32.7,6,34.8,5,36.9,3.8c0.7-0.4,1.6-0.1,2,0.5
			c0.4,0.7,0.1,1.6-0.5,2c-2.3,1.3-4.6,2.4-6.8,3.2C31.4,9.5,31.2,9.5,31.1,9.5z"/>
	</g>
	<g>
		<path fill="#0A83A0" d="M20.9,11.3C11,11.3,4.7,6.4,4.4,6.2c-0.7-0.5-0.7-1.5-0.2-2c0.5-0.7,1.5-0.7,2-0.2l0,0
			C6.3,4,13.6,9.7,24.6,8.2c0.8-0.1,1.5,0.4,1.7,1.2c0.1,0.8-0.4,1.5-1.2,1.7C23.6,11.3,22.2,11.3,20.9,11.3z"/>
	</g>
	<g>
		<path fill="#0A83A0" d="M1.8,7.4C1.2,7.4,0.6,7,0.4,6.5c-0.4-1.3-0.6-4.3,2.2-6.1c0.7-0.4,1.6-0.2,2,0.4c0.4,0.7,0.2,1.6-0.4,2
			c-1.6,1-1,2.6-1,2.7C3.4,6.2,3,7.1,2.3,7.3C2.1,7.3,1.9,7.4,1.8,7.4z"/>
	</g>
	<g>
		<path fill="#0A83A0" d="M41.2,7.4c-0.1,0-0.3,0-0.5-0.1c-0.7-0.3-1.2-1.1-0.9-1.8c0.1-0.3,0.4-1.7-1-2.7c-0.7-0.4-0.9-1.3-0.4-2
			c0.4-0.7,1.3-0.9,2-0.4c2.8,1.8,2.6,4.8,2.2,6.1C42.3,7,41.7,7.4,41.2,7.4z"/>
	</g>
	<g>
		<g>
			<path fill="#0A83A0" d="M28.1,3.3C29.2,3.3,30,3.5,30,3.5c0.6,0.1,0.9,0.7,0.8,1.3c-0.1,0.6-0.7,0.9-1.3,0.8
				c-0.1,0-2.7-0.5-4.9,1.2c-0.5,0.4-1.2,0.3-1.5-0.2C22.8,6,22.8,5.4,23.3,5C25,3.7,26.8,3.4,28.1,3.3z"/>
		</g>
	</g>
</g>
</svg>
