<?xml version="1.0" encoding="utf-8"?>
<!-- Generator: Adobe Illustrator 18.0.0, SVG Export Plug-In . SVG Version: 6.00 Build 0)  -->
<!DOCTYPE svg PUBLIC "-//W3C//DTD SVG 1.1//EN" "http://www.w3.org/Graphics/SVG/1.1/DTD/svg11.dtd">
<svg version="1.1" id="Layer_1" xmlns="http://www.w3.org/2000/svg" xmlns:xlink="http://www.w3.org/1999/xlink" x="0px" y="0px"
	 viewBox="0 0 43.1 13.4" enable-background="new 0 0 43.1 13.4" xml:space="preserve">
<g>
	<path fill="#0A83A0" d="M37,3.9c-2.1,1.2-4.2,2.2-6.3,2.9c-0.7,0.3-1.2,1.1-0.9,1.8c0.2,0.6,0.8,0.9,1.4,0.9c0.1,0,0.3,0,0.5-0.1
		c2.3-0.8,4.6-1.9,6.8-3.2c0.7-0.4,0.9-1.3,0.5-2C38.6,3.7,37.7,3.5,37,3.9z"/>
	<path fill="#0A83A0" d="M24.7,8.3C13.7,9.8,6.5,4,6.4,4c-0.7-0.5-1.5-0.4-2,0.2c-0.5,0.7-0.4,1.5,0.2,2c0.3,0.2,6.5,5.2,16.4,5.2
		c1.3,0,2.7-0.1,4.1-0.3c0.8-0.1,1.4-0.9,1.2-1.7C26.2,8.8,25.5,8.2,24.7,8.3z"/>
	<path fill="#0A83A0" d="M4.2,2.9c0.7-0.4,0.9-1.3,0.4-2C4.2,0.2,3.3,0,2.6,0.4C-0.1,2.2,0,5.2,0.4,6.5c0.2,0.6,0.8,0.9,1.4,0.9
		c0.1,0,0.3,0,0.5-0.1c0.7-0.3,1.2-1.1,0.9-1.8C3.2,5.5,2.6,3.9,4.2,2.9z"/>
	<path fill="#0A83A0" d="M40.4,0.5c-0.7-0.4-1.6-0.2-2,0.4c-0.4,0.7-0.2,1.6,0.4,2c1.5,0.9,1.1,2.4,1,2.7c-0.3,0.7,0.1,1.6,0.9,1.8
		c0.1,0.1,0.3,0.1,0.5,0.1c0.6,0,1.2-0.4,1.4-0.9C43,5.2,43.2,2.2,40.4,0.5z"/>
	<path fill="#0A83A0" d="M23.8,6.9c0.1,0,0.8,0.1,1.9,0.1c1.3-0.1,3.1-0.4,4.8-1.7c0.5-0.4,0.6-1,0.2-1.5c-0.4-0.5-1-0.6-1.5-0.2
		c-2.2,1.7-4.8,1.2-4.9,1.2C23.8,4.6,23.2,5,23,5.6C22.9,6.2,23.3,6.8,23.8,6.9z"/>
	<path fill="#0A83A0" d="M30.6,10.1c-0.4-0.2-0.9-0.1-1.2,0.3l0,0l-0.9-2.7c-0.1-0.4-0.7-0.7-1.1-0.5C27,7.3,26.8,7.8,27,8.3
		l0.9,2.6c-0.4-0.1-0.9,0.1-1.1,0.5c-0.1,0.4,0.1,0.9,0.5,1.1l1.7,0.7l0,0c0,0,0,0,0.1,0c0.1,0,0.1,0,0.1,0h0.1c0.1,0,0.1,0,0.1,0
		c0,0,0,0,0.1,0s0.1,0,0.1,0l0,0l0,0c0.1,0,0.1-0.1,0.1-0.1c0,0,0,0,0.1,0l0.1-0.1c0,0,0,0,0.1-0.1l0.1-0.1c0,0,0,0,0-0.1l0,0
		l0.9-1.5C31.1,10.9,31,10.4,30.6,10.1z"/>
</g>
</svg>
