<?xml version="1.0" encoding="utf-8"?>
<!-- Generator: Adobe Illustrator 18.0.0, SVG Export Plug-In . SVG Version: 6.00 Build 0)  -->
<!DOCTYPE svg PUBLIC "-//W3C//DTD SVG 1.1//EN" "http://www.w3.org/Graphics/SVG/1.1/DTD/svg11.dtd">
<svg version="1.1" id="Layer_1" xmlns="http://www.w3.org/2000/svg" xmlns:xlink="http://www.w3.org/1999/xlink" x="0px" y="0px"
	 viewBox="0 0 43 18.2" enable-background="new 0 0 43 18.2" xml:space="preserve">
<g>
	<path fill="#0A83A0" d="M37,3.9c-1.3,0.7-2.6,1.4-3.9,2C32.4,6.1,32,7,32.4,7.7c0.2,0.6,0.8,0.9,1.3,0.9c0.2,0,0.4-0.1,0.6-0.1
		c1.4-0.6,2.8-1.3,4.1-2.1c0.7-0.4,0.9-1.3,0.5-2C38.6,3.7,37.6,3.4,37,3.9z"/>
	<path fill="#0A83A0" d="M25.2,11.1c0.1,0,0.1,0,0.2,0c1.2-0.1,2.4-0.4,3.6-0.7c0.7-0.1,1.4-0.4,2-0.6c0.8-0.2,1.2-1.1,0.9-1.8
		S30.9,6.8,30.2,7c-0.6,0.2-1.2,0.4-1.8,0.5c-1.1,0.3-2.2,0.5-3.3,0.7c-0.8,0.1-1.4,0.9-1.2,1.7C23.9,10.5,24.5,11.1,25.2,11.1z"/>
	<path fill="#0A83A0" d="M21.7,8.5C12.4,8.8,6.5,4.1,6.3,4c-0.7-0.5-1.5-0.4-2,0.2s-0.4,1.5,0.2,2c0.3,0.2,6.5,5.2,16.4,5.2
		c0.3,0,0.6,0,0.9,0c0.8,0,1.5-0.7,1.4-1.5C23.3,9.1,22.6,8.4,21.7,8.5z"/>
	<path fill="#0A83A0" d="M4.2,2.9c0.7-0.4,0.9-1.3,0.4-2c-0.4-0.7-1.3-0.9-2-0.4C-0.2,2.2,0,5.2,0.4,6.5c0.2,0.6,0.8,0.9,1.4,0.9
		c0.1,0,0.3,0,0.4-0.1C3,7.1,3.4,6.3,3.2,5.5C3.1,5.3,2.7,3.8,4.2,2.9z"/>
	<path fill="#0A83A0" d="M40.4,0.5c-0.7-0.4-1.6-0.2-2,0.4c-0.4,0.7-0.2,1.6,0.4,2c1.5,0.9,1.1,2.4,1,2.7c-0.3,0.7,0.1,1.6,0.9,1.8
		c0.1,0.1,0.3,0.1,0.5,0.1c0.6,0,1.2-0.4,1.4-0.9C43,5.2,43.2,2.2,40.4,0.5z"/>
	<path fill="#0A83A0" d="M32.5,10.2c-0.8-0.1-1.5,0.4-1.7,1.2l-0.7,3.3c-0.1,0.8,0.4,1.5,1.2,1.7c0.2,0.1,0.5,0,0.7,0
		c0.5-0.1,0.9-0.6,1-1.1l0.7-3.3C33.8,11.1,33.3,10.4,32.5,10.2z"/>
	<path fill="#0A83A0" d="M29.1,11.2c-0.8-0.1-1.5,0.4-1.7,1.2l-0.7,3.3c-0.1,0.8,0.4,1.5,1.2,1.7c0.2,0.1,0.5,0,0.7,0
		c0.5-0.1,0.9-0.6,1-1.1l0.7-3.3C30.5,12.2,29.9,11.4,29.1,11.2z"/>
	<path fill="#0A83A0" d="M25.9,11.7c-0.8-0.1-1.5,0.4-1.7,1.2l-0.7,3.3c-0.1,0.8,0.4,1.5,1.2,1.7c0.2,0.1,0.5,0,0.7,0
		c0.5-0.1,0.9-0.6,1-1.1l0.7-3.3C27.2,12.7,26.7,11.9,25.9,11.7z"/>
</g>
</svg>
