<?xml version="1.0" encoding="utf-8"?>
<!-- Generator: Adobe Illustrator 18.0.0, SVG Export Plug-In . SVG Version: 6.00 Build 0)  -->
<!DOCTYPE svg PUBLIC "-//W3C//DTD SVG 1.1//EN" "http://www.w3.org/Graphics/SVG/1.1/DTD/svg11.dtd">
<svg version="1.1" id="Layer_1" xmlns="http://www.w3.org/2000/svg" xmlns:xlink="http://www.w3.org/1999/xlink" x="0px" y="0px"
	 viewBox="0 0 43.1 11.6" enable-background="new 0 0 43.1 11.6" xml:space="preserve">
<g>
	<path fill="#0A83A0" d="M37.1,3.9c-1.5,0.9-3,1.6-4.5,2.3c-0.7,0.3-1.1,1.2-0.8,1.9c0.2,0.6,0.8,0.9,1.3,0.9c0.2,0,0.4,0,0.6-0.1
		c1.6-0.7,3.2-1.5,4.8-2.4c0.7-0.4,0.9-1.3,0.5-2C38.7,3.7,37.7,3.4,37.1,3.9z"/>
	<path fill="#0A83A0" d="M23.8,8.4C13.4,9.4,6.5,4.1,6.4,4c-0.7-0.5-1.5-0.4-2,0.2c-0.5,0.7-0.4,1.5,0.2,2C4.9,6.5,11,11.4,21,11.4
		c1,0,2-0.1,3.1-0.1c0.8-0.1,1.4-0.8,1.3-1.6C25.3,8.9,24.6,8.3,23.8,8.4z"/>
	<path fill="#0A83A0" d="M4.3,2.9c0.7-0.4,0.9-1.3,0.4-2C4.3,0.2,3.4,0,2.7,0.4c-2.8,1.8-2.6,4.8-2.2,6.1c0.2,0.6,0.8,0.9,1.4,0.9
		c0.1,0,0.3,0,0.4-0.1c0.7-0.2,1.2-1.1,0.9-1.8C3.2,5.3,2.8,3.8,4.3,2.9z"/>
	<path fill="#0A83A0" d="M40.5,0.4c-0.7-0.4-1.6-0.2-2,0.4c-0.4,0.7-0.2,1.6,0.4,2c1.5,0.9,1.1,2.4,1,2.7c-0.3,0.7,0.1,1.6,0.9,1.8
		c0.1,0.1,0.3,0.1,0.5,0.1c0.6,0,1.2-0.4,1.4-0.9C43.1,5.2,43.3,2.2,40.5,0.4z"/>
	<path fill="#0A83A0" d="M29.7,6.3L29.7,6.3l-3.3,0.9l-0.1,0.1v0.1l2.5,2.8c0,0,0.1,0.1,0.1,0l0,0c0.1,0,0.1-0.1,0.1-0.1L29.7,6.3
		C29.8,6.4,29.8,6.4,29.7,6.3z"/>
	<path fill="#0A83A0" d="M26.3,6.9c0,0,0.1,0.1,0.1,0.1l3-0.8c0.1,0,0.1-0.1,0.1-0.1c0-0.1,0-0.1-0.1-0.1L27.5,5h-0.1
		c0,0-0.1,0-0.1,0.1L26.3,6.9C26.3,6.9,26.3,6.9,26.3,6.9z"/>
	<path fill="#0A83A0" d="M29.7,6L29.7,6L29.7,6l0.1-0.1l0.2-1.6V4.2H30l-2,0.5c-0.1,0-0.1,0.1-0.1,0.1c0,0.1,0,0.1,0.1,0.1L29.7,6z"
		/>
	<path fill="#0A83A0" d="M26,6.9L26,6.9L26,6.9c0.1,0.1,0.1,0.1,0.1,0l1-1.8c0-0.1,0-0.1,0-0.1c0,0-0.1-0.1-0.1-0.1l-1.9,0.5
		c0,0-0.1,0-0.1,0.1s0,0.1,0,0.1L26,6.9z"/>
	<path fill="#0A83A0" d="M26.1,7.3C26.1,7.3,26,7.2,26.1,7.3l-1.7,0.4c-0.1,0-0.1,0.1-0.1,0.1s0,0.1,0.1,0.1l3.9,2h0.1
		c0,0,0.1,0,0.1-0.1c0-0.1,0-0.1,0-0.1L26.1,7.3z"/>
	<path fill="#0A83A0" d="M31.8,5.8c0,0-0.1-0.1-0.1-0.1L30,6.1c-0.1,0-0.1,0.1-0.1,0.1l-0.7,3.3c0,0.1,0,0.1,0.1,0.1h0.1
		c0,0,0.1,0,0.1-0.1l2.3-3.6C31.8,5.8,31.8,5.8,31.8,5.8z"/>
	<path fill="#0A83A0" d="M30,6L30,6l1.7-0.4c0.1,0,0.1-0.1,0.1-0.1s0-0.1-0.1-0.1l-1.4-1.1h-0.1l0,0l-0.1,0.1L30,6L30,6z"/>
	<path fill="#0A83A0" d="M24.2,7.6l1.6-0.4c0,0,0.1,0,0.1-0.1s0-0.1,0-0.1L25,5.6l-0.1-0.1l0,0c0,0-0.1,0-0.1,0.1l-0.7,1.7
		C24.1,7.4,24.1,7.4,24.2,7.6C24.1,7.6,24.1,7.6,24.2,7.6z"/>
</g>
</svg>
