<?xml version="1.0" encoding="utf-8"?>
<!-- Generator: Adobe Illustrator 18.0.0, SVG Export Plug-In . SVG Version: 6.00 Build 0)  -->
<!DOCTYPE svg PUBLIC "-//W3C//DTD SVG 1.1//EN" "http://www.w3.org/Graphics/SVG/1.1/DTD/svg11.dtd">
<svg version="1.1" id="Layer_1" xmlns="http://www.w3.org/2000/svg" xmlns:xlink="http://www.w3.org/1999/xlink" x="0px" y="0px"
	 viewBox="0 0 43 11.6" enable-background="new 0 0 43 11.6" xml:space="preserve">
<g>
	<path fill="#0A83A0" d="M37,3.9c-1.3,0.7-2.6,1.4-3.9,2c-0.7,0.3-1.1,1.2-0.7,1.9c0.2,0.6,0.8,0.9,1.3,0.9c0.2,0,0.4-0.1,0.6-0.1
		c1.4-0.6,2.8-1.3,4.1-2.1c0.7-0.4,0.9-1.3,0.5-2C38.6,3.7,37.7,3.4,37,3.9z"/>
	<path fill="#0A83A0" d="M30.2,6.9c-0.6,0.2-1.2,0.4-1.8,0.5c-1.1,0.3-2.2,0.5-3.3,0.7c-0.8,0.1-1.4,0.9-1.2,1.7
		c0.1,0.7,0.7,1.2,1.5,1.2c0.1,0,0.1,0,0.2,0c1.2-0.1,2.4-0.4,3.6-0.7c0.7-0.1,1.4-0.4,2-0.6c0.8-0.2,1.2-1.1,0.9-1.8
		C31.9,7.2,30.9,6.7,30.2,6.9z"/>
	<path fill="#0A83A0" d="M21.8,8.5C12.5,8.8,6.5,4.1,6.3,4c-0.7-0.5-1.5-0.4-2,0.2s-0.4,1.5,0.2,2C4.8,6.5,11,11.4,21,11.4
		c0.3,0,0.6,0,0.9,0c0.8,0,1.5-0.7,1.4-1.5C23.3,9.1,22.6,8.5,21.8,8.5z"/>
	<path fill="#0A83A0" d="M4.2,2.9c0.7-0.4,0.9-1.3,0.4-2C4.2,0.2,3.4,0,2.6,0.4C-0.1,2.2,0,5.2,0.5,6.5c0.2,0.6,0.8,0.9,1.4,0.9
		c0.1,0,0.3,0,0.4-0.1C3,7.2,3.4,6.3,3.2,5.6C3.1,5.3,2.7,3.8,4.2,2.9z"/>
	<path fill="#0A83A0" d="M40.4,0.4c-0.7-0.4-1.6-0.2-2,0.4c-0.4,0.7-0.2,1.6,0.4,2c1.5,0.9,1.1,2.4,1,2.7c-0.3,0.7,0.1,1.6,0.9,1.8
		c0.1,0.1,0.3,0.1,0.5,0.1c0.6,0,1.2-0.4,1.4-0.9C43.1,5.2,43.2,2.2,40.4,0.4z"/>
	<path fill="#0A83A0" d="M25.7,3.4L25.7,3.4l0.7,2.7c0.1,0.4,0.6,0.7,1,0.7c0.4-0.1,0.7-0.6,0.7-1l-0.7-2.7c0.4,0.2,0.9,0,1.2-0.4
		c0.2-0.4,0-0.9-0.4-1.2l-1.7-0.8l0,0c0,0,0,0-0.1,0c-0.1,0-0.1,0-0.1,0h-0.1c-0.1,0-0.1,0-0.1,0c0,0,0,0-0.1,0c-0.1,0-0.1,0-0.1,0
		l0,0l0,0c-0.1,0-0.1,0-0.1,0.1c0,0,0,0-0.1,0l-0.1,0.1c0,0,0,0-0.1,0L25.4,1c0,0,0,0-0.1,0.1l0,0l-1.1,1.5
		c-0.3,0.4-0.2,0.9,0.1,1.2C24.8,3.9,25.4,3.8,25.7,3.4z"/>
</g>
</svg>
