<?xml version="1.0" encoding="utf-8"?>
<!-- Generator: Adobe Illustrator 18.0.0, SVG Export Plug-In . SVG Version: 6.00 Build 0)  -->
<!DOCTYPE svg PUBLIC "-//W3C//DTD SVG 1.1//EN" "http://www.w3.org/Graphics/SVG/1.1/DTD/svg11.dtd">
<svg version="1.1" id="Layer_1" xmlns="http://www.w3.org/2000/svg" xmlns:xlink="http://www.w3.org/1999/xlink" x="0px" y="0px"
	 viewBox="0 0 43.3 26.8" enable-background="new 0 0 43.3 26.8" xml:space="preserve">
<g>
	<path fill="#0A83A0" d="M4.6,4.2c-0.5,0.7-0.4,1.5,0.2,2c0.1,0.1,6.5,5.1,16.5,5.1c5,0,10.9-1.2,17.4-5c0.7-0.4,0.9-1.3,0.5-2
		c-0.4-0.7-1.3-0.9-2-0.5C19.5,14.1,7.1,4.4,6.6,4C5.9,3.5,5.1,3.6,4.6,4.2z"/>
	<path fill="#0A83A0" d="M2,7.5c0.1,0,0.3,0,0.5-0.1c0.7-0.3,1.2-1.1,0.9-1.8c0-0.1-0.6-1.7,1-2.7c0.7-0.4,0.9-1.3,0.4-2
		C4.4,0.3,3.5,0,2.8,0.5C0.1,2.3,0.2,5.3,0.6,6.6C0.9,7.1,1.4,7.5,2,7.5z"/>
	<path fill="#0A83A0" d="M39,2.9c1.5,0.9,1.1,2.4,1,2.7c-0.3,0.7,0.1,1.6,0.9,1.8c0.1,0.1,0.3,0.1,0.5,0.1c0.6,0,1.2-0.4,1.4-0.9
		c0.4-1.3,0.6-4.3-2.2-6.1C40,0,39,0.2,38.6,0.8C38.1,1.6,38.4,2.4,39,2.9z"/>
	<path fill="#0A83A0" d="M8.2,20.1c-1-0.6-1.6-1.1-1.6-1.1c-0.7-0.5-1.5-0.4-2,0.2c-0.5,0.7-0.4,1.5,0.2,2c0,0,0.7,0.6,2,1.3
		c0.2,0.1,0.5,0.2,0.7,0.2c0.5,0,1-0.3,1.2-0.7C9.1,21.4,8.9,20.5,8.2,20.1z"/>
	<path fill="#0A83A0" d="M31.6,21.6c-1.3,0.5-2.6,0.9-3.9,1.2c-0.8,0.2-1.2,0.9-1.1,1.7c0.1,0.7,0.7,1.1,1.4,1.1
		c0.1,0,0.2,0,0.4-0.1c1.4-0.4,2.8-0.8,4.2-1.3c0.7-0.3,1.2-1.1,0.9-1.9C33.2,21.7,32.3,21.3,31.6,21.6z"/>
	<path fill="#0A83A0" d="M23.7,23.4c-1.4,0.1-2.8,0.1-4,0.1c-0.8,0-1.5,0.6-1.5,1.4c-0.1,0.8,0.6,1.5,1.4,1.5c0.5,0,1.1,0.1,1.7,0.1
		c0.9,0,1.9-0.1,2.8-0.1c0.8-0.1,1.4-0.8,1.3-1.6C25.2,24,24.6,23.4,23.7,23.4z"/>
	<path fill="#0A83A0" d="M15.7,23c-1.3-0.3-2.6-0.7-3.9-1.2c-0.7-0.3-1.6,0.1-1.9,0.9c-0.3,0.7,0.1,1.6,0.9,1.9
		c1.4,0.5,2.8,0.9,4.3,1.2c0.1,0,0.2,0,0.3,0c0.7,0,1.3-0.4,1.5-1.2C17,23.9,16.5,23.2,15.7,23z"/>
	<path fill="#0A83A0" d="M37.2,18.9c-0.6,0.4-1.2,0.7-1.8,1c-0.7,0.4-1,1.2-0.7,2c0.3,0.5,0.8,0.8,1.3,0.8c0.2,0,0.4-0.1,0.7-0.1
		c0.7-0.4,1.3-0.7,2-1.1c0.7-0.4,0.9-1.3,0.5-2C38.8,18.7,37.9,18.5,37.2,18.9z"/>
	<path fill="#0A83A0" d="M4.9,15.9c-0.4-0.7-1.3-0.9-2-0.4c-0.9,0.6-1.5,1.3-2,2.2c-0.1,0.1-0.1,0.3-0.1,0.4
		c-0.1,0.1-0.1,0.3-0.2,0.4c-0.4,1.5,0.1,2.8,0.1,3c0.2,0.6,0.8,0.9,1.4,0.9c0.1,0,0.3,0,0.4-0.1c0.7-0.2,1.2-1.1,0.9-1.8
		c0,0-0.2-0.7,0-1.3c0-0.1,0-0.1,0-0.2c0-0.1,0.1-0.1,0.1-0.1c0.1-0.4,0.5-0.7,0.9-1C5.1,17.5,5.3,16.5,4.9,15.9z"/>
	<path fill="#0A83A0" d="M42.7,18.1c0-0.1-0.1-0.3-0.1-0.4c-0.4-0.9-1.1-1.6-2-2.2c-0.7-0.4-1.6-0.2-2,0.4c-0.4,0.7-0.2,1.6,0.4,2
		c0.4,0.3,0.7,0.6,0.9,1c0,0.1,0.1,0.1,0.1,0.1s0,0.1,0,0.2c0.1,0.7,0,1.3,0,1.3c-0.3,0.7,0.1,1.6,0.9,1.8c0.1,0.1,0.3,0.1,0.5,0.1
		c0.6,0,1.2-0.4,1.4-0.9c0.1-0.1,0.5-1.5,0.1-3C42.9,18.4,42.8,18.3,42.7,18.1z"/>
	<path fill="#0A83A0" d="M21.9,13.5c-0.5,0-0.9,0.4-0.9,0.9L21,17.1c-0.4-0.3-0.9-0.3-1.2,0.1c-0.3,0.4-0.3,0.9,0.1,1.2l1.4,1.2l0,0
		c0,0,0,0,0.1,0l0.1,0.1c0,0,0,0,0.1,0c0.1,0,0.1,0,0.1,0.1c0,0,0,0,0.1,0s0.1,0,0.1,0l0,0l0,0c0.1,0,0.1,0,0.1,0s0,0,0.1,0
		c0.1,0,0.1,0,0.1,0c0,0,0,0,0.1,0l0.1-0.1c0,0,0,0,0.1,0l0,0l1.5-1.2c0.4-0.3,0.4-0.8,0.1-1.2c-0.3-0.4-0.8-0.4-1.2-0.1l0,0
		l0.1-2.8C22.8,13.9,22.4,13.6,21.9,13.5z"/>
</g>
</svg>
