<?xml version="1.0" encoding="utf-8"?>
<!-- Generator: Adobe Illustrator 18.0.0, SVG Export Plug-In . SVG Version: 6.00 Build 0)  -->
<!DOCTYPE svg PUBLIC "-//W3C//DTD SVG 1.1//EN" "http://www.w3.org/Graphics/SVG/1.1/DTD/svg11.dtd">
<svg version="1.1" id="Layer_1" xmlns="http://www.w3.org/2000/svg" xmlns:xlink="http://www.w3.org/1999/xlink" x="0px" y="0px"
	 viewBox="0 0 43 12.8" enable-background="new 0 0 43 12.8" xml:space="preserve">
<g>
	<path fill="#0A83A0" d="M37,3.9c-2.8,1.7-5.8,2.9-8.7,3.6c-0.8,0.2-1.2,1-1,1.7c0.1,0.7,0.7,1.1,1.4,1.1c0.1,0,0.2,0,0.4-0.1
		c3.1-0.8,6.3-2.2,9.4-3.9c0.7-0.4,0.9-1.3,0.5-2C38.6,3.7,37.6,3.4,37,3.9z"/>
	<path fill="#0A83A0" d="M15.1,7.9C9.7,6.6,6.4,4,6.3,4c-0.7-0.5-1.5-0.4-2,0.2s-0.4,1.5,0.2,2c0.1,0.1,3.8,3.1,10,4.4
		c0.1,0,0.2,0,0.3,0c0.7,0,1.2-0.4,1.4-1.2C16.4,8.8,15.9,8,15.1,7.9z"/>
	<path fill="#0A83A0" d="M4.2,2.9c0.7-0.4,0.9-1.3,0.4-2c-0.4-0.7-1.3-0.9-2-0.4C-0.2,2.2,0,5.2,0.4,6.5c0.2,0.6,0.8,0.9,1.4,0.9
		c0.1,0,0.3,0,0.4-0.1C3,7.1,3.4,6.3,3.2,5.5C3.1,5.3,2.7,3.8,4.2,2.9z"/>
	<path fill="#0A83A0" d="M40.4,0.4c-0.7-0.4-1.6-0.2-2,0.4c-0.4,0.7-0.2,1.6,0.4,2c1.5,0.9,1.1,2.4,1,2.7c-0.3,0.7,0.1,1.6,0.9,1.8
		c0.1,0.1,0.3,0.1,0.5,0.1c0.6,0,1.2-0.4,1.4-0.9C43,5.2,43.2,2.2,40.4,0.4z"/>
	<path fill="#0A83A0" d="M26.5,6.8c-0.7-0.4-1.6-0.1-2,0.6l-1.6,3.1c-0.4,0.7-0.1,1.6,0.6,2c0.2,0.1,0.4,0.1,0.7,0.1
		c0.5,0,1-0.3,1.3-0.8L27,8.7C27.5,8.1,27.2,7.1,26.5,6.8z"/>
	<path fill="#0A83A0" d="M23,6.9c-0.7-0.4-1.6-0.1-2,0.6l-1.6,3.1c-0.4,0.7-0.1,1.6,0.6,2c0.2,0.1,0.4,0.1,0.7,0.1
		c0.5,0,1-0.3,1.3-0.8l1.6-3.1C24,8.1,23.7,7.2,23,6.9z"/>
	<path fill="#0A83A0" d="M19.7,6.4c-0.7-0.4-1.6-0.1-2,0.6l-1.6,3.1c-0.4,0.7-0.1,1.6,0.6,2c0.2,0.1,0.4,0.1,0.7,0.1
		c0.5,0,1-0.3,1.3-0.8l1.6-3.1C20.7,7.7,20.4,6.8,19.7,6.4z"/>
</g>
</svg>
