<?xml version="1.0" encoding="utf-8"?>
<!-- Generator: Adobe Illustrator 18.0.0, SVG Export Plug-In . SVG Version: 6.00 Build 0)  -->
<!DOCTYPE svg PUBLIC "-//W3C//DTD SVG 1.1//EN" "http://www.w3.org/Graphics/SVG/1.1/DTD/svg11.dtd">
<svg version="1.1" id="Layer_1" xmlns="http://www.w3.org/2000/svg" xmlns:xlink="http://www.w3.org/1999/xlink" x="0px" y="0px"
	 viewBox="0 0 43.1 13.1" enable-background="new 0 0 43.1 13.1" xml:space="preserve">
<g>
	<path fill="#0A83A0" d="M37,5.3c-1.3,0.7-2.6,1.4-3.9,2c-0.7,0.3-1.1,1.2-0.7,1.9c0.2,0.6,0.8,0.9,1.3,0.9c0.2,0,0.4-0.1,0.6-0.1
		c1.4-0.6,2.8-1.3,4.1-2.1c0.7-0.4,0.9-1.3,0.5-2C38.6,5.1,37.6,4.9,37,5.3z"/>
	<path fill="#F6F6F6" stroke="#0A83A0" stroke-miterlimit="10" d="M28.2,0.7c-0.6,0.2-1.2,0.4-1.8,0.5c-1.1,0.3-2.2,0.5-3.3,0.7
		c-0.8,0.1-1.4,0.9-1.2,1.7c0.1,0.7,0.7,1.2,1.5,1.2c0.1,0,0.1,0,0.2,0c1.2-0.1,2.4-0.4,3.6-0.7c0.7-0.1,1.4-0.4,2-0.6
		c0.8-0.2,1.2-1.1,0.9-1.8S28.9,0.5,28.2,0.7z"/>
	<path fill="#0A83A0" d="M21.7,9.9C12.4,10.2,6.4,5.5,6.3,5.4C5.6,4.9,4.8,5,4.2,5.6s-0.4,1.5,0.2,2c0.3,0.2,6.5,5.2,16.4,5.2
		c0.3,0,0.6,0,0.9,0c0.8,0,1.5-0.7,1.4-1.5C23.2,10.6,22.6,9.9,21.7,9.9z"/>
	<path fill="#0A83A0" d="M4.2,4.3C4.8,3.9,5,3,4.6,2.3c-0.4-0.7-1.3-0.9-2-0.4C-0.2,3.7,0,6.6,0.4,7.9c0.2,0.6,0.8,0.9,1.4,0.9
		c0.1,0,0.3,0,0.4-0.1C2.9,8.6,3.4,7.7,3.2,7C3.1,6.7,2.7,5.3,4.2,4.3z"/>
	<path fill="#0A83A0" d="M40.4,1.8c-0.7-0.4-1.6-0.2-2,0.4c-0.4,0.7-0.2,1.6,0.4,2c1.5,0.9,1.1,2.4,1,2.7c-0.3,0.7,0.1,1.6,0.9,1.8
		c0.1,0.1,0.3,0.1,0.5,0.1c0.6,0,1.2-0.4,1.4-0.9C43,6.6,43.1,3.7,40.4,1.8z"/>
	<path fill="#0A83A0" d="M28.5,8.5L28.5,8.5l-0.7-2.7c-0.1-0.4-0.6-0.7-1-0.7c-0.4,0.1-0.7,0.6-0.7,1l0.7,2.7
		c-0.4-0.2-0.9,0-1.2,0.4c-0.2,0.4,0,0.9,0.4,1.2l1.7,0.8l0,0c0,0,0,0,0.1,0c0.1,0,0.1,0,0.1,0h0.1c0.1,0,0.1,0,0.1,0c0,0,0,0,0.1,0
		c0.1,0,0.1,0,0.1,0l0,0l0,0c0.1,0,0.1,0,0.1-0.1c0,0,0,0,0.1,0l0.1-0.1c0,0,0,0,0.1,0l0.1-0.1c0,0,0,0,0.1-0.1l0,0l1.1-1.5
		c0.3-0.4,0.2-0.9-0.1-1.2C29.3,8,28.7,8.1,28.5,8.5z"/>
</g>
</svg>
