<?xml version="1.0" encoding="utf-8"?>
<!-- Generator: Adobe Illustrator 18.0.0, SVG Export Plug-In . SVG Version: 6.00 Build 0)  -->
<!DOCTYPE svg PUBLIC "-//W3C//DTD SVG 1.1//EN" "http://www.w3.org/Graphics/SVG/1.1/DTD/svg11.dtd">
<svg version="1.1" id="Layer_1" xmlns="http://www.w3.org/2000/svg" xmlns:xlink="http://www.w3.org/1999/xlink" x="0px" y="0px"
	 viewBox="0 0 42.9 11.5" enable-background="new 0 0 42.9 11.5" xml:space="preserve">
<g>
	<path fill="#0A83A0" d="M4.2,2.8c0.7-0.4,0.9-1.3,0.4-2c-0.4-0.7-1.3-0.9-2-0.4c-2.8,1.8-2.6,4.8-2.2,6.1C0.6,7,1.2,7.4,1.8,7.4
		c0.1,0,0.3,0,0.4-0.1c0.7-0.2,1.2-1.1,0.9-1.8C3.1,5.2,2.7,3.8,4.2,2.8z"/>
	<path fill="#0A83A0" d="M40.4,0.4c-0.7-0.4-1.6-0.2-2,0.4c-0.4,0.7-0.2,1.6,0.4,2c1.5,0.9,1.1,2.4,1,2.7c-0.3,0.7,0.1,1.6,0.9,1.8
		c0.1,0.1,0.3,0.1,0.5,0.1c0.6,0,1.2-0.4,1.4-0.9C43,5.2,43.1,2.2,40.4,0.4z"/>
	<path fill="#0A83A0" d="M36.2,5.5c-0.4,0.1-1,0.3-1.6,0.5c-0.6,0.2-1.3,0.4-2.1,0.6c-0.4,0.1-0.8,0.2-1.2,0.3
		c-0.4,0.1-0.8,0.3-1.2,0.4c-0.9,0.1-1.8,0.4-2.7,0.6c-0.9,0.1-2,0.2-2.9,0.4c-1,0-2,0.1-3.1,0.1c-0.5,0-1,0-1.5,0
		c-0.2,0-0.4,0-0.6,0s-0.5,0-0.7-0.1h-0.1c-0.1,0-0.1,0-0.2,0C11.1,7.6,6.6,4.2,6.3,3.9c-0.7-0.5-1.5-0.4-2,0.2
		c-0.5,0.7-0.4,1.5,0.2,2c0.1,0.1,5.5,4.3,14,5c0.9,0.1,2,0.1,3,0.1c1.1,0,2.3-0.1,3.3-0.3c1.1-0.2,2.1-0.4,3.1-0.7
		c1-0.4,2-0.7,2.8-1c0.9-0.4,1.7-0.8,2.4-1.2C34,7.8,34.6,7.4,35.1,7c0.6-0.4,1.1-0.7,1.5-1c0.8-0.6,1.2-0.8,1.1-0.9
		C37.5,4.9,37.1,5.2,36.2,5.5z"/>
</g>
</svg>
