<?xml version="1.0" encoding="utf-8"?>
<!-- Generator: Adobe Illustrator 18.0.0, SVG Export Plug-In . SVG Version: 6.00 Build 0)  -->
<!DOCTYPE svg PUBLIC "-//W3C//DTD SVG 1.1//EN" "http://www.w3.org/Graphics/SVG/1.1/DTD/svg11.dtd">
<svg version="1.1" id="Layer_1" xmlns="http://www.w3.org/2000/svg" xmlns:xlink="http://www.w3.org/1999/xlink" x="0px" y="0px"
	 viewBox="0 0 39.3 13.9" enable-background="new 0 0 39.3 13.9" xml:space="preserve">
<g>
	<path fill="#0A83A0" d="M39,6.8c-0.4-0.7-1.3-0.9-2-0.5C19.3,16.5,6.9,6.8,6.4,6.4C5.7,5.9,4.9,6,4.4,6.6s-0.4,1.5,0.2,2
		c0.1,0.1,6.5,5.1,16.5,5.1c5,0,10.9-1.2,17.4-5C39.1,8.4,39.4,7.5,39,6.8z"/>
	<path fill="#0A83A0" d="M4.2,5.2c0.7-0.4,0.9-1.3,0.4-2c-0.4-0.7-1.3-0.9-2-0.4C-0.2,4.6,0,7.6,0.4,8.9c0.2,0.6,0.8,0.9,1.4,0.9
		c0.1,0,0.3,0,0.4-0.1C3,9.5,3.4,8.6,3.2,7.9C3.1,7.7,2.7,6.2,4.2,5.2z"/>
	<path fill="#0A83A0" d="M36,6.5C36,6.5,36,6.5,36,6.5c0.9,0,1.5-0.6,1.5-1.4l0.1-3.4c0-0.8-0.6-1.5-1.4-1.5
		c-0.8-0.1-1.5,0.6-1.5,1.4l-0.1,3.4C34.6,5.7,35.2,6.4,36,6.5z"/>
	<path fill="#0A83A0" d="M32.8,7.9L32.8,7.9c0.9,0,1.5-0.6,1.5-1.4l0.1-3.4c0-0.8-0.6-1.5-1.4-1.5c-0.8,0-1.5,0.6-1.5,1.4l-0.1,3.4
		C31.4,7.3,32,7.9,32.8,7.9z"/>
	<path fill="#0A83A0" d="M29.7,8.9C29.7,8.9,29.7,8.9,29.7,8.9c0.9,0,1.5-0.6,1.5-1.4l0.1-3.4c0-0.8-0.6-1.5-1.4-1.5
		c-0.8,0-1.5,0.6-1.5,1.4l-0.1,3.4C28.3,8.3,28.9,8.9,29.7,8.9z"/>
</g>
</svg>
