<?xml version="1.0" encoding="utf-8"?>
<!-- Generator: Adobe Illustrator 18.0.0, SVG Export Plug-In . SVG Version: 6.00 Build 0)  -->
<!DOCTYPE svg PUBLIC "-//W3C//DTD SVG 1.1//EN" "http://www.w3.org/Graphics/SVG/1.1/DTD/svg11.dtd">
<svg version="1.1" id="Layer_1" xmlns="http://www.w3.org/2000/svg" xmlns:xlink="http://www.w3.org/1999/xlink" x="0px" y="0px"
	 viewBox="0 0 43 16.5" enable-background="new 0 0 43 16.5" xml:space="preserve">
<g>
	<path fill="#0A83A0" d="M37,3.9C33.3,6,29.6,7.5,25.9,8.2c-0.8,0.1-1.3,0.9-1.2,1.7c0.1,0.7,0.7,1.2,1.5,1.2c0.1,0,0.1,0,0.3,0
		c4-0.7,8.1-2.3,12-4.6c0.7-0.4,0.9-1.3,0.5-2C38.6,3.8,37.7,3.6,37,3.9z"/>
	<path fill="#0A83A0" d="M17.2,8.4C10.5,7.4,6.4,4.2,6.3,4.1c-0.7-0.5-1.5-0.4-2,0.2s-0.4,1.5,0.2,2c0.2,0.1,4.7,3.8,12.3,4.9
		c0.1,0,0.1,0,0.2,0c0.7,0,1.3-0.5,1.5-1.2C18.6,9.2,18,8.4,17.2,8.4z"/>
	<path fill="#0A83A0" d="M4.2,2.9c0.7-0.4,0.9-1.3,0.4-2C4.2,0.2,3.3,0,2.6,0.5C-0.1,2.3,0,5.2,0.4,6.6c0.2,0.6,0.8,0.9,1.4,0.9
		c0.1,0,0.3,0,0.5-0.1c0.7-0.3,1.2-1.1,0.9-1.8C3.2,5.6,2.6,4,4.2,2.9z"/>
	<path fill="#0A83A0" d="M40.4,0.5c-0.7-0.4-1.6-0.2-2,0.4c-0.4,0.7-0.2,1.6,0.4,2c1.5,0.9,1.1,2.4,1,2.7c-0.3,0.7,0.1,1.6,0.9,1.8
		c0.1,0.1,0.3,0.1,0.5,0.1c0.6,0,1.2-0.4,1.4-0.9C43,5.3,43.2,2.3,40.4,0.5z"/>
	<path fill="#0A83A0" d="M22.4,13.7L22.4,13.7v-2.8c0-0.5-0.4-0.9-0.9-0.9c-0.5,0-0.9,0.4-0.9,0.9l-0.1,2.8
		c-0.4-0.3-0.9-0.3-1.2,0.1c-0.3,0.4-0.3,0.9,0.1,1.2l1.4,1.2l0,0c0,0,0,0,0.1,0l0.1,0.1c0,0,0,0,0.1,0c0.1,0,0.1,0,0.1,0.1
		c0,0,0,0,0.1,0s0.1,0,0.1,0l0,0l0,0c0.1,0,0.1,0,0.1,0s0,0,0.1,0c0.1,0,0.1,0,0.1,0c0,0,0,0,0.1,0l0.1-0.1c0,0,0,0,0.1,0l0,0
		l1.5-1.2c0.4-0.3,0.4-0.8,0.1-1.2C23.3,13.5,22.8,13.4,22.4,13.7z"/>
	<path fill="#0A83A0" d="M17.4,7.3c0.1,0,1.7,0.6,4.1,0.6c1.2,0,2.6-0.1,4.1-0.5c0.8-0.2,1.2-1,1-1.7c-0.2-0.8-1-1.2-1.7-1
		c-3.6,0.9-6.5,0.1-6.5,0c-0.7-0.3-1.6,0.1-1.8,0.9C16.2,6.2,16.6,7,17.4,7.3z"/>
</g>
</svg>
