<?xml version="1.0" encoding="utf-8"?>
<!-- Generator: Adobe Illustrator 18.0.0, SVG Export Plug-In . SVG Version: 6.00 Build 0)  -->
<!DOCTYPE svg PUBLIC "-//W3C//DTD SVG 1.1//EN" "http://www.w3.org/Graphics/SVG/1.1/DTD/svg11.dtd">
<svg version="1.1" id="Layer_1" xmlns="http://www.w3.org/2000/svg" xmlns:xlink="http://www.w3.org/1999/xlink" x="0px" y="0px"
	 viewBox="0 0 43.1 14.8" enable-background="new 0 0 43.1 14.8" xml:space="preserve">
<g>
	<path fill="#0A83A0" d="M37.1,3.8c-1.3,0.7-2.6,1.4-3.9,2c-0.7,0.3-1.1,1.2-0.7,1.9c0.2,0.6,0.8,0.9,1.3,0.9c0.2,0,0.4-0.1,0.6-0.1
		c1.4-0.6,2.8-1.3,4.1-2.1c0.7-0.4,0.9-1.3,0.5-2C38.7,3.7,37.7,3.5,37.1,3.8z"/>
	<path fill="#0A83A0" d="M25.5,11c1.2-0.1,2.4-0.4,3.6-0.7c0.7-0.1,1.4-0.4,2-0.6c0.8-0.2,1.2-1.1,0.9-1.8C31.9,7.2,31,6.7,30.3,7
		c-0.6,0.2-1.2,0.4-1.8,0.5c-1.1,0.3-2.2,0.5-3.3,0.7c-0.8,0.1-1.4,0.9-1.2,1.7c0.1,0.7,0.7,1.2,1.5,1.2C25.4,11,25.5,11,25.5,11z"
		/>
	<path fill="#0A83A0" d="M31.3,10.5c-0.6,0.2-1.2,0.4-1.8,0.5c-1.1,0.3-2.2,0.5-3.3,0.7c-0.8,0.1-1.4,0.9-1.2,1.7
		c0.1,0.7,0.7,1.2,1.5,1.2c0.1,0,0.1,0,0.2,0c1.2-0.1,2.4-0.4,3.6-0.7c0.7-0.1,1.4-0.4,2-0.6c0.8-0.2,1.2-1.1,0.9-1.8
		C32.9,10.7,32.1,10.3,31.3,10.5z"/>
	<path fill="#0A83A0" d="M21.8,8.5C12.5,8.8,6.5,4,6.4,4c-0.7-0.5-1.5-0.4-2,0.2s-0.4,1.5,0.2,2c0.3,0.2,6.5,5.2,16.4,5.2
		c0.3,0,0.6,0,0.9,0c0.8,0,1.5-0.7,1.4-1.5C23.3,9.1,22.7,8.5,21.8,8.5z"/>
	<path fill="#0A83A0" d="M4.3,2.9c0.7-0.4,0.9-1.3,0.4-2S3.4,0,2.7,0.4c-2.8,1.8-2.6,4.8-2.2,6.1c0.2,0.6,0.8,0.9,1.4,0.9
		c0.1,0,0.3,0,0.4-0.1c0.7-0.2,1.2-1.1,0.9-1.8C3.2,5.3,2.8,3.8,4.3,2.9z"/>
	<path fill="#0A83A0" d="M40.5,0.4c-0.7-0.4-1.6-0.2-2,0.4c-0.4,0.7-0.2,1.6,0.4,2c1.5,0.9,1.1,2.4,1,2.7c-0.3,0.7,0.1,1.6,0.9,1.8
		c0.1,0.1,0.3,0.1,0.5,0.1c0.6,0,1.2-0.4,1.4-0.9C43.1,5.2,43.3,2.2,40.5,0.4z"/>
</g>
</svg>
