<?xml version="1.0" encoding="utf-8"?>
<!-- Generator: Adobe Illustrator 18.0.0, SVG Export Plug-In . SVG Version: 6.00 Build 0)  -->
<!DOCTYPE svg PUBLIC "-//W3C//DTD SVG 1.1//EN" "http://www.w3.org/Graphics/SVG/1.1/DTD/svg11.dtd">
<svg version="1.1" id="Layer_1" xmlns="http://www.w3.org/2000/svg" xmlns:xlink="http://www.w3.org/1999/xlink" x="0px" y="0px"
	 viewBox="0 0 43.1 17.9" enable-background="new 0 0 43.1 17.9" xml:space="preserve">
<g>
	<path fill="#0A83A0" d="M37,3.9c-1.6,0.9-3.1,1.7-4.7,2.3c-0.7,0.3-1.1,1.2-0.8,1.9C31.7,8.7,32.3,9,32.9,9c0.2,0,0.4,0,0.6-0.1
		c1.7-0.7,3.4-1.5,5.1-2.5c0.7-0.4,0.9-1.3,0.5-2S37.7,3.4,37,3.9z"/>
	<path fill="#0A83A0" d="M25.8,9.6c-0.1-0.8-0.8-1.4-1.6-1.3C13.5,9.5,6.5,4,6.4,3.9c-0.7-0.5-1.5-0.4-2,0.2c-0.5,0.7-0.4,1.5,0.2,2
		c0.3,0.2,6.5,5.2,16.4,5.2c1.1,0,2.3-0.1,3.5-0.2C25.2,11.1,25.8,10.4,25.8,9.6z"/>
	<path fill="#0A83A0" d="M4.2,2.9c0.7-0.4,0.9-1.3,0.4-2c-0.4-0.7-1.3-0.9-2-0.4C-0.1,2.2,0,5.2,0.5,6.5c0.2,0.6,0.8,0.9,1.4,0.9
		c0.1,0,0.3,0,0.4-0.1C3,7.1,3.4,6.3,3.2,5.5C3.1,5.2,2.7,3.8,4.2,2.9z"/>
	<path fill="#0A83A0" d="M40.4,0.4c-0.7-0.4-1.6-0.2-2,0.4c-0.4,0.7-0.2,1.6,0.4,2c1.5,0.9,1.1,2.4,1,2.7c-0.3,0.7,0.1,1.6,0.9,1.8
		c0.1,0.1,0.3,0.1,0.5,0.1c0.6,0,1.2-0.4,1.4-0.9C43.1,5.2,43.2,2.2,40.4,0.4z"/>
	<path fill="#0A83A0" d="M30.8,9.2c0-0.1,0-0.1,0.1-0.1c0-0.1,0-0.1,0-0.1c0-0.1,0-0.1,0-0.1c0-0.1,0-0.1,0-0.1c0-0.1,0-0.1,0-0.1
		c0-0.1,0-0.1-0.1-0.1c0-0.1,0-0.1-0.1-0.1c0-0.1-0.1-0.1-0.1-0.1c0,0,0-0.1-0.1-0.1c-0.1-0.1-0.1-0.1-0.1-0.2l0,0l0,0l0,0l-6.3-6.3
		c-0.6-0.6-1.5-0.6-2,0s-0.6,1.5,0,2L27.6,9l-4.3,6.5c-0.4,0.7-0.2,1.6,0.4,2c0.2,0.1,0.5,0.2,0.8,0.2c0.5,0,0.9-0.2,1.2-0.7
		l4.9-7.5l0,0l0,0V9.5c0.1-0.1,0.1-0.1,0.1-0.2C30.8,9.3,30.8,9.2,30.8,9.2z"/>
</g>
</svg>
