<?xml version="1.0" encoding="utf-8"?>
<!-- Generator: Adobe Illustrator 18.0.0, SVG Export Plug-In . SVG Version: 6.00 Build 0)  -->
<!DOCTYPE svg PUBLIC "-//W3C//DTD SVG 1.1//EN" "http://www.w3.org/Graphics/SVG/1.1/DTD/svg11.dtd">
<svg version="1.1" id="Layer_1" xmlns="http://www.w3.org/2000/svg" xmlns:xlink="http://www.w3.org/1999/xlink" x="0px" y="0px"
	 viewBox="0 0 43 18.3" enable-background="new 0 0 43 18.3" xml:space="preserve">
<g>
	<path fill="#0A83A0" d="M37,4.4C19.3,14.7,6.9,5,6.4,4.6c-0.7-0.5-1.5-0.4-2,0.2c-0.5,0.7-0.4,1.5,0.2,2C4.6,6.9,11,11.9,21,11.9
		c5,0,10.9-1.2,17.4-5c0.7-0.4,0.9-1.3,0.5-2C38.6,4.2,37.6,4,37,4.4z"/>
	<path fill="#0A83A0" d="M4.2,3.4C4.8,3,5,2.1,4.6,1.4s-1.3-0.9-2-0.4C-0.2,2.7,0,5.7,0.4,7C0.6,7.6,1.2,8,1.8,8
		c0.1,0,0.3,0,0.4-0.1c0.7-0.2,1.2-1.1,0.9-1.8C3.1,5.8,2.7,4.3,4.2,3.4z"/>
	<path fill="#0A83A0" d="M40.4,0.9c-0.7-0.4-1.6-0.2-2,0.4c-0.4,0.7-0.2,1.6,0.4,2c1.5,0.9,1.1,2.4,1,2.7c-0.3,0.7,0.1,1.6,0.9,1.8
		C40.8,8,41,8,41.2,8c0.6,0,1.2-0.4,1.4-0.9C43,5.7,43.1,2.7,40.4,0.9z"/>
	<path fill="#0A83A0" d="M25.8,7.8c0.3,0.2,0.6,0.4,0.9,0.4c0.4,0,0.8-0.1,1.1-0.5c0.5-0.6,0.4-1.5-0.2-2L25,3.4
		c-0.6-0.5-1.5-0.4-2,0.2c-0.5,0.6-0.4,1.5,0.2,2L25.8,7.8z"/>
	<path fill="#0A83A0" d="M32,6.2c0.1,0.1,0.3,0.1,0.4,0.1c0.6,0,1.2-0.4,1.4-1l1-3.2c0.2-0.8-0.1-1.6-0.9-1.8
		c-0.7-0.2-1.6,0.1-1.8,0.9l-1,3.2C30.9,5.1,31.3,5.9,32,6.2z"/>
	<path fill="#0A83A0" d="M28.2,6c0.1,0.7,0.7,1.1,1.4,1.1c0.1,0,0.2,0,0.4-0.1c0.8-0.2,1.2-1,1.1-1.7l-0.9-3.9
		c-0.2-0.8-1-1.2-1.7-1.1c-0.8,0.2-1.2,1-1.1,1.7L28.2,6z"/>
	<path fill="#0A83A0" d="M38.3,11l-2.9-1.7c-0.7-0.4-1.6-0.1-2,0.5c-0.4,0.7-0.2,1.6,0.5,2l2.9,1.7c0.2,0.1,0.5,0.2,0.7,0.2
		c0.5,0,0.9-0.3,1.2-0.7C39.2,12.3,39,11.5,38.3,11z"/>
	<path fill="#0A83A0" d="M29.5,11.8c-0.8-0.1-1.5,0.4-1.7,1.2l-0.5,3.3c-0.1,0.8,0.4,1.5,1.2,1.7c0.1,0,0.1,0,0.2,0
		c0.7,0,1.3-0.5,1.5-1.2l0.5-3.3C30.9,12.7,30.3,12,29.5,11.8z"/>
	<path fill="#0A83A0" d="M33.3,11.4c-0.3-0.7-1.2-1.1-1.9-0.7c-0.7,0.3-1.1,1.2-0.7,1.9l1.6,3.6c0.2,0.6,0.8,0.9,1.3,0.9
		c0.2,0,0.4-0.1,0.6-0.1c0.7-0.3,1.1-1.2,0.7-1.9L33.3,11.4z"/>
</g>
</svg>
