<?xml version="1.0" encoding="utf-8"?>
<!-- Generator: Adobe Illustrator 18.0.0, SVG Export Plug-In . SVG Version: 6.00 Build 0)  -->
<!DOCTYPE svg PUBLIC "-//W3C//DTD SVG 1.1//EN" "http://www.w3.org/Graphics/SVG/1.1/DTD/svg11.dtd">
<svg version="1.1" id="Layer_1" xmlns="http://www.w3.org/2000/svg" xmlns:xlink="http://www.w3.org/1999/xlink" x="0px" y="0px"
	 viewBox="0 0 47.2 15.8" enable-background="new 0 0 47.2 15.8" xml:space="preserve">
<g>
	<path fill="#0A83A0" d="M6.4,6.3C5.9,7,6,7.8,6.7,8.3c0.1,0.1,6.5,5.1,16.5,5.1c5,0,10.9-1.2,17.4-5c0.7-0.4,0.9-1.3,0.5-2
		c-0.4-0.7-1.3-0.9-2-0.5C21.4,16.2,9,6.5,8.5,6.1C7.8,5.6,6.9,5.7,6.4,6.3z"/>
	<path fill="#0A83A0" d="M5.3,7.7C5.2,7.4,4.8,5.9,6.3,5c0.7-0.4,0.9-1.3,0.4-2c-0.4-0.7-1.3-0.9-2-0.4C1.9,4.3,2.1,7.3,2.5,8.6
		c0.2,0.6,0.8,0.9,1.4,0.9c0.1,0,0.3,0,0.4-0.1C5.1,9.2,5.5,8.4,5.3,7.7z"/>
	<path fill="#0A83A0" d="M37.7,5.2c0.1,0,0.1,0,0.1-0.1c0.2-0.1,0.4-0.2,0.6-0.3c0.1-0.1,0.2-0.1,0.4-0.1l0.3-0.1L39,4.3
		c-0.1-0.3-0.1-0.7,0-0.9c0-0.2-0.1-0.4-0.3-0.4c-0.2,0-0.4,0.1-0.4,0.3c-0.1,0.3-0.1,0.6,0,0.9c-0.1,0-0.1,0.1-0.2,0.1
		c-0.2,0.1-0.4,0.2-0.6,0.3c-0.1,0.1-0.2,0.3-0.1,0.5C37.4,5.1,37.5,5.2,37.7,5.2z"/>
	<path fill="#0A83A0" d="M11.2,6.4c0.7,0.4,1.4,0.7,2.1,1c0.1,0,0.1,0,0.1,0c0.1,0,0.3-0.1,0.4-0.2c0.1-0.2,0-0.4-0.2-0.5
		c-0.7-0.3-1.4-0.7-2-1c-0.1-0.1-0.4,0-0.5,0.1C11,6,11.1,6.2,11.2,6.4z"/>
	<path fill="#0A83A0" d="M15.5,8.2c0.7,0.2,1.5,0.4,2.3,0.6h0.1c0.1,0,0.3-0.1,0.4-0.3c0.1-0.2-0.1-0.4-0.3-0.4
		c-0.7-0.1-1.5-0.4-2.2-0.6c-0.2-0.1-0.4,0.1-0.4,0.2C15.2,7.9,15.3,8.1,15.5,8.2z"/>
	<path fill="#0A83A0" d="M20,9.1c0.8,0.1,1.5,0.1,2.3,0.1l0,0c0.2,0,0.4-0.1,0.4-0.4s-0.1-0.4-0.4-0.4c-0.7,0-1.5-0.1-2.3-0.1
		c-0.2,0-0.4,0.1-0.4,0.3C19.7,9,19.9,9.1,20,9.1z"/>
	<path fill="#0A83A0" d="M29.2,8.6L29.2,8.6c0.8-0.1,1.5-0.4,2.3-0.7c0.2-0.1,0.3-0.3,0.2-0.4s-0.3-0.3-0.4-0.2
		c-0.7,0.2-1.5,0.4-2.2,0.6c-0.2,0.1-0.3,0.2-0.3,0.4C28.9,8.5,29,8.6,29.2,8.6z"/>
	<path fill="#0A83A0" d="M24.7,9.3L24.7,9.3C25.5,9.2,26.2,9.1,27,9c0.2,0,0.4-0.2,0.3-0.4c0-0.2-0.2-0.4-0.4-0.3
		c-0.7,0.1-1.5,0.2-2.3,0.2c-0.2,0-0.4,0.2-0.4,0.4C24.3,9.1,24.5,9.3,24.7,9.3z"/>
	<path fill="#0A83A0" d="M33.5,7.2c0.1,0,0.1,0,0.1,0c0.7-0.3,1.4-0.6,2.1-0.9c0.1-0.1,0.3-0.3,0.1-0.5c-0.1-0.1-0.3-0.3-0.5-0.1
		c-0.7,0.4-1.4,0.7-2.1,0.9C33.1,6.6,33,6.8,33.1,7C33.3,7.1,33.4,7.2,33.5,7.2z"/>
	<path fill="#0A83A0" d="M9.3,5.1L9.3,5.1c0.1,0.1,0.1,0.1,0.2,0.1c0.1,0,0.2-0.1,0.3-0.1c0.1-0.1,0.1-0.4-0.1-0.5
		C9.5,4.3,9.2,4.1,8.9,4.1c0-0.3,0-0.6,0-0.9c0-0.2-0.2-0.4-0.4-0.3C8.3,2.8,8.1,3,8.2,3.3c0.1,0.3,0.1,0.7,0,0.9L8.1,4.5l0.3,0.1
		C8.8,4.7,9,4.9,9.3,5.1z"/>
	<path fill="#0A83A0" d="M1,7c0-0.5,0.1-1,0.1-1.5c0.1-0.2-0.1-0.4-0.3-0.4S0.5,5.1,0.4,5.4C0.3,5.9,0.3,6.5,0.3,7
		c0,0.3,0,0.5,0.1,0.8c0,0.2,0.1,0.4,0.4,0.4l0,0c0.2,0,0.4-0.2,0.3-0.4C1,7.4,1,7.2,1,7z"/>
	<path fill="#0A83A0" d="M3.2,10.8C2.6,10.7,2,10.2,1.6,9.7C1.4,9.6,1.2,9.5,1.1,9.7C0.9,9.8,0.8,10,1,10.2c0.5,0.7,1.2,1.2,2.1,1.5
		h0.1c0.1,0,0.3-0.1,0.4-0.3C3.6,11,3.5,10.8,3.2,10.8z"/>
	<path fill="#0A83A0" d="M1.4,3.6c0.1,0.1,0.1,0.1,0.2,0.1c0.1,0,0.2-0.1,0.3-0.1C2.3,3,2.8,2.4,3.4,1.9c0.1-0.1,0.2-0.4,0.1-0.5
		C3.3,1.3,3.1,1.2,2.9,1.4C2.3,1.9,1.8,2.5,1.3,3.2C1.2,3.3,1.3,3.5,1.4,3.6z"/>
	<path fill="#0A83A0" d="M5.3,1c0.7-0.1,1.4,0.1,1.9,0.6c0.1,0.1,0.1,0.1,0.2,0.1c0.1,0,0.2-0.1,0.3-0.1C7.8,1.4,7.7,1.1,7.6,1
		C6.9,0.5,6.1,0.2,5.2,0.3C5,0.3,4.8,0.5,4.8,0.6C4.9,0.9,5.1,1,5.3,1z"/>
	<path fill="#0A83A0" d="M7.4,10.4C7,10.2,6.7,9.9,6.5,9.8L6.2,9.6L6,9.8c-0.2,0.2-0.4,0.4-0.7,0.7c-0.1,0.1-0.2,0.3-0.1,0.5
		c0.1,0.1,0.2,0.1,0.3,0.1s0.1,0,0.2-0.1c0.2-0.1,0.5-0.4,0.7-0.5C6.6,10.7,6.8,10.8,7,11C7.2,11,7.4,11,7.5,10.8
		C7.6,10.7,7.5,10.5,7.4,10.4z"/>
	<path fill="#0A83A0" d="M37.8,11.3c-0.7,0.3-1.4,0.7-2.1,0.9c-0.2,0.1-0.3,0.3-0.2,0.4c0.1,0.1,0.2,0.2,0.4,0.2c0.1,0,0.1,0,0.1,0
		c0.7-0.3,1.5-0.6,2.1-0.9c0.2-0.1,0.3-0.3,0.1-0.5C38.1,11.3,37.9,11.2,37.8,11.3z"/>
	<path fill="#0A83A0" d="M15.7,13.8c-0.7-0.1-1.5-0.4-2.2-0.7c-0.2-0.1-0.4,0.1-0.4,0.2c-0.1,0.2,0.1,0.4,0.2,0.4
		c0.7,0.2,1.5,0.4,2.3,0.7h0.1c0.1,0,0.3-0.1,0.4-0.3C16,14.1,15.9,13.9,15.7,13.8z"/>
	<path fill="#0A83A0" d="M33.5,13c-0.7,0.2-1.5,0.4-2.2,0.7c-0.2,0.1-0.3,0.2-0.3,0.4c0.1,0.1,0.2,0.3,0.4,0.3h0.1
		c0.7-0.2,1.5-0.4,2.3-0.7c0.2-0.1,0.3-0.3,0.2-0.4C33.9,13.1,33.7,13,33.5,13z"/>
	<path fill="#0A83A0" d="M29.2,14.2c-0.7,0.1-1.5,0.3-2.3,0.4c-0.2,0-0.4,0.2-0.3,0.4c0,0.2,0.1,0.3,0.4,0.3c0,0,0,0,0.1,0
		c0.7-0.1,1.5-0.2,2.3-0.4c0.2-0.1,0.3-0.2,0.3-0.4C29.5,14.2,29.3,14.2,29.2,14.2z"/>
	<path fill="#0A83A0" d="M24.7,14.7c-0.5,0-1,0.1-1.5,0.1c-0.2,0-0.5,0-0.7,0s-0.4,0.1-0.4,0.4s0.1,0.4,0.4,0.4s0.4,0,0.7,0
		c0.6,0,1.1,0,1.6-0.1c0.2,0,0.4-0.1,0.4-0.4C25,14.9,24.8,14.7,24.7,14.7z"/>
	<path fill="#0A83A0" d="M11.4,12.4c-0.7-0.3-1.4-0.6-2-0.9c-0.1-0.1-0.4,0-0.5,0.1c-0.1,0.1,0,0.4,0.1,0.5c0.7,0.4,1.4,0.7,2.1,0.9
		c0.1,0,0.1,0,0.1,0c0.1,0,0.3-0.1,0.4-0.2C11.7,12.7,11.6,12.5,11.4,12.4z"/>
	<path fill="#0A83A0" d="M20.2,14.6c-0.7-0.1-1.5-0.1-2.3-0.3c-0.2-0.1-0.4,0.1-0.4,0.3c0,0.2,0.1,0.4,0.3,0.4
		c0.7,0.1,1.5,0.2,2.3,0.3l0,0c0.2,0,0.4-0.1,0.4-0.4C20.5,14.8,20.3,14.6,20.2,14.6z"/>
	<path fill="#0A83A0" d="M41.9,10.5c-0.3-0.1-0.5-0.4-0.7-0.7L41,9.7l-0.3,0.1c-0.3,0.1-0.7,0.4-0.9,0.5c-0.1,0.1-0.2,0.3-0.1,0.5
		c0.1,0.1,0.3,0.2,0.5,0.1c0.2-0.1,0.5-0.3,0.7-0.4c0.2,0.2,0.4,0.4,0.7,0.6c0.1,0,0.1,0.1,0.2,0.1c0.1,0,0.2-0.1,0.3-0.1
		C42.2,10.8,42.1,10.6,41.9,10.5z"/>
	<path fill="#0A83A0" d="M39.7,1.7c0.1,0,0.1,0,0.2-0.1c0.5-0.4,1.2-0.7,1.9-0.6c0.2,0,0.4-0.1,0.4-0.4s-0.1-0.4-0.4-0.4
		C41,0.2,40.1,0.5,39.4,1c-0.1,0.1-0.2,0.4-0.1,0.5C39.5,1.6,39.7,1.7,39.7,1.7z"/>
	<path fill="#0A83A0" d="M45.2,3.5c0.1,0.1,0.2,0.1,0.3,0.1s0.1,0,0.2-0.1c0.1-0.1,0.2-0.4,0.1-0.5c-0.4-0.7-0.9-1.3-1.6-1.8
		c-0.1-0.1-0.4-0.1-0.5,0.1c-0.1,0.1-0.1,0.4,0.1,0.5C44.3,2.3,44.8,2.9,45.2,3.5z"/>
	<path fill="#0A83A0" d="M45.5,9.7c-0.4,0.6-0.9,0.9-1.7,1.2c-0.2,0.1-0.3,0.2-0.3,0.4c0.1,0.1,0.2,0.3,0.4,0.3H44
		c0.9-0.2,1.6-0.7,2.1-1.5c0.1-0.1,0.1-0.4-0.1-0.5S45.7,9.5,45.5,9.7z"/>
	<path fill="#0A83A0" d="M46.7,5.3C46.6,5.1,46.5,5,46.3,5C46.1,5.1,46,5.2,46,5.4c0.1,0.5,0.1,0.9,0.1,1.5c0,0.2,0,0.5,0,0.7
		c0,0.2,0.1,0.4,0.3,0.4l0,0c0.2,0,0.4-0.1,0.4-0.4c0-0.2,0.1-0.5,0.1-0.8C46.9,6.4,46.9,5.9,46.7,5.3z"/>
	<path fill="#0A83A0" d="M44.7,8.6c0.4-1.3,0.6-4.3-2.2-6.1c-0.7-0.4-1.6-0.2-2,0.4c-0.4,0.7-0.2,1.6,0.4,2c1.5,0.9,1.1,2.4,1,2.7
		c-0.3,0.7,0.1,1.6,0.9,1.8c0.1,0.1,0.3,0.1,0.5,0.1C43.9,9.6,44.5,9.2,44.7,8.6z"/>
</g>
</svg>
