<?xml version="1.0" encoding="utf-8"?>
<!-- Generator: Adobe Illustrator 18.0.0, SVG Export Plug-In . SVG Version: 6.00 Build 0)  -->
<!DOCTYPE svg PUBLIC "-//W3C//DTD SVG 1.1//EN" "http://www.w3.org/Graphics/SVG/1.1/DTD/svg11.dtd">
<svg version="1.1" id="Capa_1" xmlns="http://www.w3.org/2000/svg" xmlns:xlink="http://www.w3.org/1999/xlink" x="0px" y="0px"
	 viewBox="-0.3 89.5 611.3 611.6" enable-background="new -0.3 89.5 611.3 611.6" xml:space="preserve">
<g>
	<path fill="#00829F" d="M305.3,128.5c147.2,0,267.1,119.8,267.1,267.1S452.6,662.6,305.3,662.6S38.2,542.8,38.2,395.6
		S158.1,128.5,305.3,128.5 M305.3,90.3C136.7,90.3,0.1,227,0.1,395.6s136.6,305.2,305.2,305.2s305.2-136.6,305.2-305.2
		S473.9,90.3,305.3,90.3L305.3,90.3z M475.5,497.6l-1.7-5.2c-4.1-12-17.3-24.6-29.6-27.9l-45.1-12.3c-12.3-3.3-29.7,1.2-38.6,10.1
		l-16.3,16.3c-59.4-16.1-105.9-62.6-121.9-122l16.3-16.3c8.9-8.9,13.5-26.3,10.1-38.6l-12.3-45.1c-3.3-12.3-15.9-25.5-27.9-29.6
		l-5.1-1.7c-12-4.1-29.2,0-38.2,9.1l-24.6,24.4c-4.4,4.3-7.2,16.7-7.2,16.8c-0.8,77.6,29.6,152.3,84.4,207.1
		c54.7,54.7,129.1,85,206.5,84.4c0.4,0,13.2-2.7,17.5-7l24.4-24.4C475.5,526.8,479.5,509.7,475.5,497.6z"/>
</g>
</svg>
