<?xml version="1.0" encoding="utf-8"?>
<!-- Generator: Adobe Illustrator 18.0.0, SVG Export Plug-In . SVG Version: 6.00 Build 0)  -->
<!DOCTYPE svg PUBLIC "-//W3C//DTD SVG 1.1//EN" "http://www.w3.org/Graphics/SVG/1.1/DTD/svg11.dtd">
<svg version="1.1" id="Isolation_Mode" xmlns="http://www.w3.org/2000/svg" xmlns:xlink="http://www.w3.org/1999/xlink" x="0px"
	 y="0px" viewBox="0 0 117.7 91.4" enable-background="new 0 0 117.7 91.4" xml:space="preserve">
<g>
	<g>
		<g>
			<path fill="#FFFFFF" d="M111.6,16.9v19.5c-2.6-1.9-5.8-3.1-9.3-3.1c-8.5,0-15.5,6.9-15.5,15.5s6.9,15.5,15.5,15.5
				c3.5,0,6.7-1.2,9.3-3.1v3.2h6.2V16.9H111.6z M102.3,58c-5.1,0-9.3-4.2-9.3-9.3s4.2-9.3,9.3-9.3s9.3,4.2,9.3,9.3
				S107.4,58,102.3,58z"/>
			<path fill="#FFFFFF" d="M85.1,48.6c-0.1-8.5-7-15.3-15.4-15.3c-3.5,0-6.7,1.2-9.3,3.1V16.9h-6.2v47.3h6.2v-3.2V48.7
				c0-5.1,4.2-9.3,9.3-9.3s9.3,4.2,9.3,9.3v12.4v3.2h6.2L85.1,48.6L85.1,48.6z"/>
		</g>
	</g>
	<g>
		<path fill="#FFFFFF" d="M78.6,16.4c-0.4-3.5-1.3-6.3-2.8-8.8C73.4,3.5,69.4,1,64,0.2c-1.2-0.2-2.5-0.2-4-0.2c-1.4,0-2.8,0.1-4,0.2
			c-5.2,0.3-10.2,1.7-16.3,4.4c-0.1,0-0.1,0.1-0.2,0.1c-0.7-0.3-1.7-0.7-2.5-1C31,1.2,25.7,0,20.3,0h-0.1c-2.9,0-6.6,0.2-10.2,1.9
			c-3.6,1.7-6.2,4.4-7.9,8.1C0.6,13.8-0.1,17.8,0,23.2c0.1,4.4,0.8,8.6,2.2,12.5c1.1,3.1,2.9,7.7,6.8,11.6c-0.3,1-0.4,2.1-0.4,3
			C8.3,53.7,8.4,57.4,9,61.9c0.3,2,0.6,4.1,1,6c0.4,2.2,1,4.3,1.5,6.4c0.8,2.7,1.8,6.2,3.6,9.6c1,1.9,2.2,4.1,4.5,5.9
			c1.3,1.1,2.8,1.6,4.4,1.6c0.6,0,1.2-0.1,1.8-0.2c2-0.5,3.3-1.8,3.8-3.9c0.2-0.9,0.4-1.9,0.4-3.2c0-0.8,0-1.2,0-1.5
			c0-0.5,0-0.5,0-0.8c0-0.3,0.1-0.8,0.2-1.8c0-0.1,0-0.2,0-0.3c0.5-6.7,2.6-12.4,5.9-16.1c0,0,1.3-1.4,3.2-1.4c0,0,0,0,0.1,0
			c2.3,0,3.5,1.3,3.6,1.5c2.1,2.7,4.9,7.8,5.6,16.1l0,0.2c0.1,1.2,0.2,2.4,0.2,3.7c0,0.7,0,1,0,1.1c0,0.3,0,0.5,0,0.8
			c0,0.2,0.1,0.6,0.2,1.2c0.2,1.2,0.8,2.3,1.7,3.2c1.1,1.1,3,1.3,4.1,1.3c0.7,0,2-0.1,3.1-0.6c1.8-0.9,2.9-2.1,3.7-3.1
			c2.1-2.6,3.3-5.5,4.2-7.7c1.4-3.6,2.4-7.6,3.2-12c0.1-0.6,0.2-1.2,0.3-1.8c0.4-2.3,0.7-4.7,0.9-7.6c0,0,0-0.2,0-0.2c0,0,0,0,0-0.1
			c0-1-0.8-1.9-1.9-1.9c-1,0-1.7,0.6-1.8,1.5c0,0,0,0.4,0,0.1c-0.2,2.7-0.5,5.3-0.8,7.5c-0.1,0.6-0.2,1.2-0.3,1.7
			c-0.7,4.2-1.7,7.9-3,11.3c-0.8,2.1-1.8,4.5-3.6,6.7c-0.6,0.7-1.4,1.6-2.5,2.1c-0.2,0.1-0.8,0.2-1.4,0.2c-0.8,0-1.3-0.2-1.5-0.2
			c-0.3-0.3-0.5-0.7-0.6-1.1c-0.1-0.6-0.2-1-0.2-1.2c0-0.3,0-0.7,0-1.4c0-1.4-0.1-2.7-0.2-4l0-0.2c-0.7-7.4-2.9-13.7-6.4-18.2
			c0,0,0,0,0,0c-0.1-0.1-2.4-2.8-6.5-2.8c-3.8-0.1-6.1,2.6-6.2,2.7c-3.8,4.3-6.2,10.8-6.8,18.3l0,0.2c-0.1,1-0.1,1.4-0.2,1.7
			c-0.1,0.5-0.1,0.6-0.1,1.2c0,0.3,0,0.8,0,1.5c0,0.9-0.1,1.6-0.2,2.3c-0.2,0.8-0.4,1-1.1,1.2c-1.1,0.3-2.1,0.1-3-0.6
			c-1.5-1.2-2.4-2.7-3.5-4.7c-1.3-2.5-2.3-5.2-3.4-8.9c-0.6-2-1-4-1.5-6.1c-0.4-1.9-0.7-3.8-1-5.8c-0.6-4.2-0.7-7.6-0.5-10.8
			c0.1-1,0.2-1.9,0.5-2.8c0.3-1,0.1-2-0.7-2.8c-2.8-2.7-4.8-5.9-6.3-10.6c-1.2-3.5-1.9-7.3-2-11.4c-0.1-4.8,0.5-8.3,1.9-11.5
			c1.3-3,3.3-5,6.1-6.3c2.2-1.1,4.9-1.5,8.5-1.5h0.1c4.9,0,9.7,1.1,15.4,3.4c0.3,0.1,2.6,1.1,3.6,1.4l0.6,0.2
			c5.5,1.9,9.4,3.3,10.9,3.5c1,0.2,2-0.5,2.1-1.6c0.2-1-0.5-2-1.6-2.1c-0.9-0.1-3.9-1.1-6.5-2.1C49,5,52.6,4.1,56.3,3.9
			c1.1-0.1,2.4-0.1,3.8-0.1c1.3,0,2.4,0.1,3.5,0.2c4.3,0.6,7.2,2.4,9.1,5.6c1.2,2.1,1.9,4.4,2.3,7.4c0.4,3.1,0.4,6.2,0.1,9.2l0,0
			c0,0,0,0.1,0,0.1c0,1,0.8,1.9,1.9,1.9c0.9,0,1.7-0.6,1.8-1.5C79.1,23.2,79,19.8,78.6,16.4z"/>
	</g>
	<g>
		<path fill="#FFFFFF" d="M75.9,68v5.4c-0.7-0.5-1.6-0.7-2.4-0.7c-2.6,0-4.7,2.1-4.7,4.7c0,2.6,2.1,4.7,4.7,4.7
			c0.9,0,1.7-0.2,2.4-0.7v0.7h2.4V68H75.9z M75.9,77.4c0,1.3-1.1,2.4-2.4,2.4S71,78.7,71,77.4c0-1.3,1.1-2.4,2.4-2.4
			S75.9,76,75.9,77.4z"/>
		<path fill="#FFFFFF" d="M98.1,82.1l0-4.7c0-2.5-2.1-4.6-4.7-4.6c-0.9,0-1.7,0.2-2.4,0.7v-0.7h-2.2v9.3H91v-4.7
			c0-1.3,1.1-2.4,2.4-2.4c1.3,0,2.4,1.1,2.4,2.4v4.7H98.1z"/>
		<path fill="#FFFFFF" d="M102.9,79.7c0,0-0.3,0-0.4,0c-0.5,0-0.9-0.2-1.1-0.5c-0.2-0.3-0.3-0.8-0.3-1.4v-2.6h1.8v-2.4h-1.8V68h-2.4
			v10.4c0,0.5,0.1,1,0.2,1.4c0.1,0.5,0.4,0.9,0.7,1.2c0.3,0.3,0.7,0.6,1.2,0.8c0.5,0.2,1.1,0.3,1.7,0.3c0.2,0,0.3,0,0.5,0V79.7z"/>
		<path fill="#FFFFFF" d="M85.7,78.5c-0.4,0.8-1.2,1.3-2.2,1.3c-1.1,0-2-0.7-2.3-1.7h6.9c0-0.2,0.1-0.5,0.1-0.7
			c0-2.6-2.1-4.6-4.6-4.6c-2.6,0-4.6,2.1-4.6,4.6c0,2.6,2.1,4.6,4.6,4.6c2.2,0,4-1.5,4.5-3.5H85.7z M83.5,75c1.1,0,2,0.8,2.3,1.8
			h-4.7C81.5,75.7,82.4,75,83.5,75z"/>
		<path fill="#FFFFFF" d="M117.3,79.7c-0.5,0-0.9-0.2-1.1-0.5c-0.2-0.3-0.3-0.8-0.3-1.4V68h-2.4v10.4c0,0.5,0.1,1,0.2,1.4
			c0.1,0.5,0.4,0.9,0.7,1.2c0.3,0.3,0.7,0.6,1.2,0.8c0.5,0.2,1.1,0.3,1.7,0.3c0.2,0,0.3,0,0.5,0v-2.4
			C117.7,79.7,117.4,79.7,117.3,79.7z"/>
		<path fill="#FFFFFF" d="M108.2,72.7c-2.6,0-4.7,2.1-4.7,4.7c0,2.6,2.1,4.7,4.7,4.7c0.9,0,1.7-0.3,2.5-0.7v0.7h2.2l0-4.7
			c0,0,0,0,0,0C112.9,74.8,110.8,72.7,108.2,72.7z M108.2,79.8c-1.3,0-2.4-1.1-2.4-2.4s1.1-2.4,2.4-2.4s2.4,1.1,2.4,2.4
			S109.5,79.8,108.2,79.8z"/>
	</g>
</g>
</svg>
