<?xml version="1.0" encoding="utf-8"?>
<!-- Generator: Adobe Illustrator 18.0.0, SVG Export Plug-In . SVG Version: 6.00 Build 0)  -->
<!DOCTYPE svg PUBLIC "-//W3C//DTD SVG 1.1//EN" "http://www.w3.org/Graphics/SVG/1.1/DTD/svg11.dtd">
<svg version="1.1" id="Layer_1" xmlns="http://www.w3.org/2000/svg" xmlns:xlink="http://www.w3.org/1999/xlink" x="0px" y="0px"
	 viewBox="85.1 -0.2 341.8 512.3" enable-background="new 85.1 -0.2 341.8 512.3" xml:space="preserve">
<g>
	<g>
		<g>
			<path fill="#1784A0" d="M256,0C161.9,0,85.3,76.5,85.3,170.6v170.8C85.3,435.5,161.9,512,256,512s170.7-76.5,170.7-170.6V170.6
				C426.7,76.5,350.1,0,256,0z M407.7,341.4C407.7,425,339.6,493,256,493s-151.7-68-151.7-151.6V170.6C104.3,87,172.4,19,256,19
				s151.7,68,151.7,151.6V341.4z"/>
			<path fill="#1784A0" d="M256,56.9c-5.2,0-9.5,4.2-9.5,9.5v85.9c0,5.2,4.2,9.5,9.5,9.5c5.2,0,9.5-4.2,9.5-9.5V66.4
				C265.5,61.1,261.2,56.9,256,56.9z"/>
		</g>
	</g>
</g>
</svg>
