<?xml version="1.0" encoding="utf-8"?>
<!-- Generator: Adobe Illustrator 18.0.0, SVG Export Plug-In . SVG Version: 6.00 Build 0)  -->
<!DOCTYPE svg PUBLIC "-//W3C//DTD SVG 1.1//EN" "http://www.w3.org/Graphics/SVG/1.1/DTD/svg11.dtd">
<svg version="1.1" id="Layer_1" xmlns="http://www.w3.org/2000/svg" xmlns:xlink="http://www.w3.org/1999/xlink" x="0px" y="0px"
	 viewBox="0 0 58.7 15.4" enable-background="new 0 0 58.7 15.4" xml:space="preserve">
<g>
	<path fill="#03829F" d="M28.7,15.4c-13.8,0-22.6-6.9-22.7-7c-0.9-0.7-1-2-0.3-2.8c0.7-0.9,2-1,2.8-0.3c0.7,0.6,17.8,13.9,42.1-0.2
		c1-0.6,2.2-0.2,2.7,0.7c0.6,1,0.2,2.2-0.7,2.7C43.7,13.7,35.6,15.4,28.7,15.4z"/>
</g>
<g>
	<path fill="#03829F" d="M2.2,10c-0.8,0-1.6-0.5-1.9-1.3c-0.6-1.8-0.8-5.9,3-8.4C4.3-0.3,5.5,0,6.1,0.9c0.6,0.9,0.3,2.2-0.6,2.8
		C3.5,5,4,7,4.1,7.4c0.3,1-0.2,2.2-1.3,2.5C2.7,10,2.4,10,2.2,10z"/>
</g>
<g>
	<path fill="#03829F" d="M56.4,10c-0.2,0-0.4,0-0.7-0.1c-1-0.4-1.6-1.5-1.2-2.5C54.7,7,55.2,5,53.1,3.7c-0.9-0.6-1.2-1.8-0.6-2.8
		c0.6-0.9,1.8-1.2,2.8-0.6c3.8,2.5,3.6,6.6,3,8.4C58,9.5,57.3,10,56.4,10z"/>
</g>
</svg>
