<?xml version="1.0" encoding="utf-8"?>
<!-- Generator: Adobe Illustrator 18.0.0, SVG Export Plug-In . SVG Version: 6.00 Build 0)  -->
<!DOCTYPE svg PUBLIC "-//W3C//DTD SVG 1.1//EN" "http://www.w3.org/Graphics/SVG/1.1/DTD/svg11.dtd">
<svg version="1.1" id="Isolation_Mode" xmlns="http://www.w3.org/2000/svg" xmlns:xlink="http://www.w3.org/1999/xlink" x="0px"
	 y="0px" viewBox="0 0 79 91.4" enable-background="new 0 0 79 91.4" xml:space="preserve">
<g>
	<path fill="#FFFFFF" d="M78.6,16.4c-0.4-3.5-1.3-6.3-2.8-8.8C73.4,3.5,69.4,1,64,0.2c-1.2-0.2-2.5-0.2-4-0.2c-1.4,0-2.8,0.1-4,0.2
		c-5.2,0.3-10.2,1.7-16.3,4.4c-0.1,0-0.1,0.1-0.2,0.1c-0.7-0.3-1.7-0.7-2.5-1C31,1.2,25.7,0,20.3,0h-0.1c-2.9,0-6.6,0.2-10.2,1.9
		c-3.6,1.7-6.2,4.4-7.9,8.1C0.6,13.8-0.1,17.8,0,23.2c0.1,4.4,0.8,8.6,2.2,12.5c1.1,3.1,2.9,7.7,6.8,11.6c-0.3,1-0.4,2.1-0.4,3
		C8.3,53.7,8.4,57.4,9,61.9c0.3,2,0.6,4.1,1,6c0.4,2.2,1,4.3,1.5,6.4c0.8,2.7,1.8,6.2,3.6,9.6c1,1.9,2.2,4.1,4.5,5.9
		c1.3,1.1,2.8,1.6,4.4,1.6c0.6,0,1.2-0.1,1.8-0.2c2-0.5,3.3-1.8,3.8-3.9c0.2-0.9,0.4-1.9,0.4-3.2c0-0.8,0-1.2,0-1.5
		c0-0.5,0-0.5,0-0.8c0-0.3,0.1-0.8,0.2-1.8c0-0.1,0-0.2,0-0.3c0.5-6.7,2.6-12.4,5.9-16.1c0,0,1.3-1.4,3.2-1.4c0,0,0,0,0.1,0
		c2.3,0,3.5,1.3,3.6,1.5c2.1,2.7,4.9,7.8,5.6,16.1l0,0.2c0.1,1.2,0.2,2.4,0.2,3.7c0,0.7,0,1,0,1.1c0,0.3,0,0.5,0,0.8
		c0,0.2,0.1,0.6,0.2,1.2c0.2,1.2,0.8,2.3,1.7,3.2c1.1,1.1,3,1.3,4.1,1.3c0.7,0,2-0.1,3.1-0.6c1.8-0.9,2.9-2.1,3.7-3.1
		c2.1-2.6,3.3-5.5,4.2-7.7c1.4-3.6,2.4-7.6,3.2-12c0.1-0.6,0.2-1.2,0.3-1.8c0.8-4.9,1.5-11.5,0.5-18.2c-0.1-0.6-0.1-0.6,0.2-0.8
		c0.4-0.2,0.6-0.5,0.7-0.7l0-0.1c2.9-3.2,4.9-7,6.3-11.9C78.9,28.7,79.4,22.6,78.6,16.4z M49,84.8c0-0.1,0-0.2,0.1-0.3
		C49,84.6,49,84.7,49,84.8z"/>
</g>
</svg>
